<?xml version="1.0" encoding="UTF-8"?>
<svg width="980px" height="200px" viewBox="0 0 980 200" version="1.1" xmlns="http://www.w3.org/2000/svg" xmlns:xlink="http://www.w3.org/1999/xlink">
    <!-- Generator: Sketch 43.2 (39069) - http://www.bohemiancoding.com/sketch -->
    <title>dotfiles</title>
    <desc>Created with Sketch.</desc>
    <defs></defs>
    <g id="Page-1" stroke="none" stroke-width="1" fill="none" fill-rule="evenodd">
        <g id="dotfiles">
            <path d="M420.508002,93.567996 C423.244002,93.567996 425.188003,94.5279962 426.604003,95.9439964 L426.604003,83.4399943 L435.148004,83.4399943 L435.148004,118 L426.964003,118 L426.964003,115.912 C425.548003,117.496 423.484002,118.624 420.484002,118.624 C414.124001,118.624 409.66,112.983999 409.66,106.071998 C409.66,99.2079969 414.124001,93.567996 420.508002,93.567996 Z M422.692002,101.511997 C420.244002,101.511997 418.468002,103.431998 418.468002,106.095998 C418.468002,108.759998 420.244002,110.679999 422.692002,110.679999 C425.140003,110.679999 426.916003,108.759998 426.916003,106.095998 C426.916003,103.431998 425.140003,101.511997 422.692002,101.511997 Z M451.204002,93.567996 C458.668004,93.567996 464.164004,98.8719969 464.164004,106.095998 C464.164004,113.319999 458.668004,118.624 451.204002,118.624 C443.740001,118.624 438.244,113.319999 438.244,106.095998 C438.244,98.8719969 443.740001,93.567996 451.204002,93.567996 Z M451.204002,101.511997 C448.756002,101.511997 446.980002,103.431998 446.980002,106.095998 C446.980002,108.759998 448.756002,110.679999 451.204002,110.679999 C453.652003,110.679999 455.428003,108.759998 455.428003,106.095998 C455.428003,103.431998 453.652003,101.511997 451.204002,101.511997 Z M486.388003,94.2159961 L478.660002,94.2159961 L478.660002,87.399995 L470.116001,87.399995 L470.116001,94.2159961 L465.796,94.2159961 L465.796,101.751997 L470.116001,101.751997 L470.116001,108.639998 C470.116001,114.471999 472.876001,118.624 479.644002,118.624 C483.820003,118.624 486.196003,117.52 488.572004,115.864 L485.716003,109.239999 C484.612003,109.863999 483.172003,110.679999 481.852003,110.679999 C480.004002,110.679999 478.660002,109.887999 478.660002,107.319998 L478.660002,101.751997 L486.388003,101.751997 L486.388003,94.2159961 Z M509.548003,84.4719945 C507.844003,83.4879943 505.660003,82.8159942 502.636002,82.8159942 C497.116001,82.8159942 493.156001,86.1999948 493.156001,93.2799959 L493.156001,94.2159961 L489.316,94.2159961 L489.316,101.751997 L493.156001,101.751997 L493.156001,118 L501.700002,118 L501.700002,101.751997 L507.748003,101.751997 L507.748003,94.2159961 L501.700002,94.2159961 L501.700002,93.495996 C501.700002,91.5519957 502.420002,90.7599955 503.932002,90.7599955 C505.036003,90.7599955 505.852003,91.0479956 506.668003,91.4079956 L509.548003,84.4719945 Z M519.940002,94.2159961 L511.396,94.2159961 L511.396,118 L519.940002,118 L519.940002,94.2159961 Z M515.644001,82.3599942 C512.884001,82.3599942 510.748,84.4959945 510.748,87.255995 C510.748,90.0159954 512.884001,92.1519958 515.644001,92.1519958 C518.404001,92.1519958 520.540002,90.0159954 520.540002,87.255995 C520.540002,84.4959945 518.404001,82.3599942 515.644001,82.3599942 Z M532.660002,83.4399943 L524.116,83.4399943 L524.116,118 L532.660002,118 L532.660002,83.4399943 Z M548.116002,93.567996 C555.316003,93.567996 560.260004,98.6559968 560.284004,106.095998 C560.284004,106.911998 560.212004,108.159998 560.116004,108.639998 L544.588002,108.639998 C545.164002,110.559999 546.604002,111.519999 548.860002,111.519999 C550.396003,111.519999 552.052003,110.871999 553.348003,109.599999 L559.204004,114.495999 C556.900004,116.992 553.156003,118.624 548.452002,118.624 C540.844001,118.624 535.756,113.679999 535.756,106.311998 C535.756,98.7759968 540.796001,93.567996 548.116002,93.567996 Z M548.164002,100.743997 C546.340002,100.743997 545.164002,101.631997 544.612002,103.479998 L551.764003,103.479998 C551.140003,101.631997 549.940002,100.743997 548.164002,100.743997 Z M584.020004,95.4159963 C579.556003,93.9519961 577.468003,93.567996 573.556002,93.567996 C566.908001,93.567996 563.092,96.4479965 563.092,101.679997 C563.092,106.095998 565.732001,108.447998 571.612002,109.359999 L572.548002,109.503999 C575.188002,109.911999 576.172002,110.055999 576.172002,110.823999 C576.172002,111.519999 575.572002,111.831999 573.700002,111.831999 C570.628002,111.831999 567.724001,111.111999 565.084001,109.671999 L562.348,116.344 C564.748001,117.784 568.924001,118.624 573.652002,118.624 C580.612003,118.624 584.716004,115.528 584.716004,110.031999 C584.716004,106.071998 582.196003,103.575998 577.132003,102.735997 L575.692002,102.495997 C573.532002,102.135997 571.900002,102.087997 571.900002,101.223997 C571.900002,100.671997 572.308002,100.335997 573.964002,100.335997 C576.148002,100.335997 579.268003,101.079997 581.980003,102.087997 L584.020004,95.4159963 Z" id=".dotfiles" fill="#424242"></path>
            <path d="M401.476001,107.559998 C398.476001,107.559998 395.908,110.103999 395.908,113.055999 C395.908,116.056 398.476001,118.624 401.476001,118.624 C404.428002,118.624 406.972002,116.056 406.972002,113.055999 C406.972002,110.103999 404.428002,107.559998 401.476001,107.559998 Z" id="Path" fill="#2196F3"></path>
        </g>
    </g>
</svg>